# xmcd
#
# Track frame offsets:
#	150
#	20063
#	40181
#	58778
#	74287
#	96419
#	107563
#	129429
#	143240
#	164694
#	184705
#
# Disc length: 2739 seconds
# Revision: 0
# Processed by: cddbd v1.5.2PL0 Copyright (c) Steve Scherf et al.
# Submitted via: dBpowerAMP V12.0
#
DISCID=9f0ab10b
DTITLE=Town Mountain - New Freedom Blues
DYEAR=2018
DGENRE=Bluegrass
TTITLE0=New Freedom Blues
TTITLE1=North of Cheyenne
TTITLE2=Life and Debt
TTITLE3=Lazy River
TTITLE4=One Drop in the Bottle
TTITLE5=Tar Heal
TTITLE6=Underdog
TTITLE7=Witch Trials
TTITLE8=Way I'm Made
TTITLE9=Pamlico
TTITLE10=Down Low
EXTD=
EXTT0=
EXTT1=
EXTT2=
EXTT3=
EXTT4=
EXTT5=
EXTT6=
EXTT7=
EXTT8=
EXTT9=
EXTT10=
PLAYORDER=
